<svg xmlns="http://www.w3.org/2000/svg" width="80" height="80" fill="none"><path fill="#000" fill-rule="evenodd" d="M7.333 63.17c-.001.688.22 1.22.664 1.663.444.444.978.667 1.67.667h22.86a3.408 3.408 0 0 1-.014-.027c-.348-.734-.513-1.536-.513-2.39v-2.25H12v-3.666c0-.77.177-1.494.543-2.153.383-.69.955-1.213 1.673-1.573a43.129 43.129 0 0 1 9.08-3.41 39.542 39.542 0 0 1 9.703-1.198c1.028-.002 2.057.04 3.085.127.873.074 1.745.217 2.614.428l3.97-3.97a106.71 106.71 0 0 0-4.004-.766A33.467 33.467 0 0 0 33 44.167c-3.644 0-7.216.434-10.72 1.304a49.123 49.123 0 0 0-10.166 3.757h-.001a8.29 8.29 0 0 0-3.504 3.24c-.85 1.426-1.276 2.986-1.276 4.699v6.002ZM43.51 44.575c.386.083.771.17 1.157.257L39 50.5c-1-.278-2-.459-3-.543-1-.085-2-.126-3-.124A38.54 38.54 0 0 0 23.54 51a42.132 42.132 0 0 0-8.873 3.333c-.556.278-.973.667-1.25 1.167A3.373 3.373 0 0 0 13 57.167v2.666h20v3.25c0 .723.139 1.376.417 1.96a3.923 3.923 0 0 0 1.167 1.457H9.666c-.945 0-1.737-.32-2.377-.96-.64-.64-.959-1.431-.957-2.373v-6c0-1.89.473-3.626 1.417-5.21a9.29 9.29 0 0 1 3.917-3.624A50.12 50.12 0 0 1 22.04 44.5 45.338 45.338 0 0 1 33 43.167c1.944 0 3.889.166 5.833.5 1.56.267 3.118.57 4.677.909ZM24.29 35.21c2.425 2.425 5.31 3.623 8.71 3.623 3.4 0 6.285-1.198 8.71-3.623 2.425-2.425 3.623-5.31 3.623-8.71 0-3.4-1.198-6.284-3.623-8.71-2.425-2.424-5.31-3.623-8.71-3.623-3.4 0-6.285 1.199-8.71 3.624-2.425 2.425-3.623 5.31-3.623 8.71 0 3.398 1.198 6.284 3.623 8.709Zm-.707.707c2.611 2.61 5.75 3.916 9.417 3.916s6.806-1.305 9.417-3.916c2.61-2.611 3.916-5.75 3.916-9.417s-1.305-6.805-3.916-9.417c-2.611-2.61-5.75-3.916-9.417-3.916s-6.806 1.305-9.417 3.916c-2.61 2.612-3.916 5.75-3.916 9.417s1.305 6.806 3.916 9.417Z" clip-rule="evenodd"/><path fill="#FA6400" fill-rule="evenodd" d="M41.333 63.502c-.001.689.22 1.22.664 1.664.444.444.978.667 1.67.667h26.669c.688.002 1.22-.22 1.664-.663.443-.444.667-.978.667-1.67v-1.335a5.965 5.965 0 0 0-.894-3.184c-.578-.948-1.39-1.627-2.47-2.05l-.01-.004-.01-.004a31.16 31.16 0 0 0-6.015-1.815A32.641 32.641 0 0 0 57 54.5h-.001c-2.1-.002-4.187.2-6.264.605a31.091 31.091 0 0 0-6.017 1.818l-.01.004-.011.005c-1.077.42-1.888 1.097-2.467 2.045-.6.984-.897 2.04-.897 3.19v1.335Zm10.457-16.46c1.419 1.42 3.135 2.125 5.21 2.125s3.791-.706 5.21-2.124c1.418-1.419 2.123-3.134 2.123-5.21 0-2.075-.705-3.79-2.123-5.21C60.79 35.206 59.075 34.5 57 34.5s-3.791.705-5.21 2.124c-1.418 1.418-2.123 3.134-2.123 5.21 0 2.075.705 3.79 2.123 5.209ZM44.333 56c-1.275.498-2.26 1.317-2.956 2.457a6.993 6.993 0 0 0-1.044 3.71V63.5c-.002.942.317 1.733.957 2.373.64.64 1.432.96 2.377.96h26.666c.943.003 1.734-.316 2.374-.956.64-.64.96-1.433.96-2.377v-1.333a6.965 6.965 0 0 0-1.04-3.707c-.696-1.14-1.683-1.96-2.96-2.46a32.154 32.154 0 0 0-6.207-1.873 33.636 33.636 0 0 0-12.917-.004A32.094 32.094 0 0 0 44.333 56Zm6.75-8.25c1.611 1.611 3.584 2.417 5.917 2.417 2.333 0 4.306-.806 5.917-2.417 1.61-1.611 2.416-3.583 2.416-5.917 0-2.333-.805-4.305-2.416-5.916C61.306 34.306 59.333 33.5 57 33.5c-2.333 0-4.306.806-5.917 2.417-1.61 1.61-2.416 3.583-2.416 5.916 0 2.334.805 4.306 2.416 5.917Z" clip-rule="evenodd"/></svg>