<svg xmlns="http://www.w3.org/2000/svg" width="80" height="80" fill="none"><path fill="#000" fill-rule="evenodd" d="M12.404 59.783v-4.7c0-.647.374-1.194.726-1.583.38-.422.9-.84 1.504-1.242 1.212-.81 2.898-1.649 4.864-2.408 3.935-1.517 9.141-2.767 14.24-2.767h.01c3.09.032 6.148.428 9.117 1.158l3.503-3.502a47.212 47.212 0 0 0-12.64-1.989c-4.327.002-10.861 1.087-16.29 3.258-2.716 1.086-5.092 2.419-6.773 3.972-1.675 1.546-2.594 3.245-2.594 5.103v9h24.666v-4.3H12.404Zm21.333-1v6.3H7.071v-10c0-8.9 17.767-13.333 26.666-13.333a48.26 48.26 0 0 1 14.5 2.533l-5.066 5.067a38.983 38.983 0 0 0-9.434-1.267c-9.9 0-20.333 4.867-20.333 7v3.7h20.333Zm0-46.033c-6.814 0-12.333 5.519-12.333 12.333 0 6.815 5.52 12.334 12.333 12.334 6.815 0 12.334-5.52 12.334-12.334S40.55 12.75 33.737 12.75Zm0 20c-4.215 0-7.666-3.411-7.666-7.667 0-4.255 3.45-7.666 7.666-7.666 4.22 0 7.667 3.447 7.667 7.666 0 4.216-3.411 7.667-7.667 7.667Zm-13.333-7.667c0-7.366 5.967-13.333 13.333-13.333 7.367 0 13.334 5.967 13.334 13.333 0 7.367-5.967 13.334-13.334 13.334-7.366 0-13.333-5.967-13.333-13.334Zm6.667 0c0 3.7 3 6.667 6.666 6.667 3.7 0 6.667-3 6.667-6.667 0-3.666-3-6.666-6.667-6.666a6.665 6.665 0 0 0-6.666 6.666ZM72.485 42.997a1.833 1.833 0 0 0-.08-2.48l-4.267-4.267a1.833 1.833 0 0 0-2.567 0l-3.334 3.333 6.834 6.667 3.333-3.333v.166a1.76 1.76 0 0 0 .08-.086Zm-.711-.71a.834.834 0 0 0-.077-1.063l-4.262-4.263a.834.834 0 0 0-1.161 0l-2.614 2.614 5.402 5.27 2.635-2.636.077.077ZM41.07 61.963v5.286h5.616l18.998-19.22-5.406-5.275-19.208 19.21Zm19.2-20.614-20.2 20.2v6.7h7.033l20-20.233-6.833-6.667Z" clip-rule="evenodd"/><path fill="#FA6400" fill-rule="evenodd" d="M72.485 42.997a1.833 1.833 0 0 0-.08-2.48l-4.267-4.267a1.833 1.833 0 0 0-2.567 0l-3.334 3.333 6.834 6.667 3.333-3.333v.166a1.76 1.76 0 0 0 .08-.086Zm-.711-.71a.834.834 0 0 0-.077-1.063l-4.262-4.263a.834.834 0 0 0-1.161 0l-2.614 2.614 5.402 5.27 2.635-2.636.077.077ZM41.07 61.963v5.286h5.616l18.998-19.22-5.406-5.275-19.208 19.21Zm19.2-20.614-20.2 20.2v6.7h7.033l20-20.233-6.833-6.667Z" clip-rule="evenodd"/></svg>